<mxfile host="app.diagrams.net" modified="2024-05-30T19:48:53.837Z" agent="Mozilla/5.0 (Windows NT 10.0; Win64; x64) AppleWebKit/537.36 (KHTML, like Gecko) Chrome/125.0.0.0 Safari/537.36" etag="Ii8N31xZD1cxd1HmINhA" version="24.4.10" type="device">
  <diagram name="Page-1" id="D9KrbN1HpGchZC3lj7AW">
    <mxGraphModel dx="2390" dy="1243" grid="1" gridSize="10" guides="1" tooltips="1" connect="1" arrows="1" fold="1" page="1" pageScale="1" pageWidth="850" pageHeight="1100" math="0" shadow="0">
      <root>
        <mxCell id="0" />
        <mxCell id="1" parent="0" />
        <mxCell id="JFB4fge5Wf1V-ydik8tn-36" value="&lt;div&gt;&lt;span style=&quot;background-color: initial;&quot;&gt;Library System&lt;/span&gt;&lt;br&gt;&lt;/div&gt;" style="swimlane;fontStyle=1;align=center;verticalAlign=top;childLayout=stackLayout;horizontal=1;startSize=30;horizontalStack=0;resizeParent=1;resizeParentMax=0;resizeLast=0;collapsible=1;marginBottom=0;whiteSpace=wrap;html=1;" vertex="1" parent="1">
          <mxGeometry x="345" y="40" width="160" height="150" as="geometry" />
        </mxCell>
        <mxCell id="JFB4fge5Wf1V-ydik8tn-37" value="&lt;span style=&quot;background-color: initial;&quot;&gt;-username: string&lt;/span&gt;&lt;div&gt;-password: string&lt;/div&gt;" style="text;strokeColor=none;fillColor=none;align=left;verticalAlign=top;spacingLeft=4;spacingRight=4;overflow=hidden;rotatable=0;points=[[0,0.5],[1,0.5]];portConstraint=eastwest;whiteSpace=wrap;html=1;" vertex="1" parent="JFB4fge5Wf1V-ydik8tn-36">
          <mxGeometry y="30" width="160" height="40" as="geometry" />
        </mxCell>
        <mxCell id="JFB4fge5Wf1V-ydik8tn-38" value="" style="line;strokeWidth=1;fillColor=none;align=left;verticalAlign=middle;spacingTop=-1;spacingLeft=3;spacingRight=3;rotatable=0;labelPosition=right;points=[];portConstraint=eastwest;strokeColor=inherit;" vertex="1" parent="JFB4fge5Wf1V-ydik8tn-36">
          <mxGeometry y="70" width="160" height="8" as="geometry" />
        </mxCell>
        <mxCell id="JFB4fge5Wf1V-ydik8tn-73" value="+login(string, string)&lt;div&gt;+logout()&lt;/div&gt;&lt;div&gt;+register()&lt;/div&gt;&lt;div&gt;&lt;div&gt;&lt;span style=&quot;background-color: initial;&quot;&gt;+Lookup()&lt;/span&gt;&lt;/div&gt;&lt;/div&gt;" style="text;strokeColor=none;fillColor=none;align=left;verticalAlign=top;spacingLeft=4;spacingRight=4;overflow=hidden;rotatable=0;points=[[0,0.5],[1,0.5]];portConstraint=eastwest;whiteSpace=wrap;html=1;" vertex="1" parent="JFB4fge5Wf1V-ydik8tn-36">
          <mxGeometry y="78" width="160" height="72" as="geometry" />
        </mxCell>
        <mxCell id="JFB4fge5Wf1V-ydik8tn-40" value="Book" style="swimlane;fontStyle=1;align=center;verticalAlign=top;childLayout=stackLayout;horizontal=1;startSize=26;horizontalStack=0;resizeParent=1;resizeParentMax=0;resizeLast=0;collapsible=1;marginBottom=0;whiteSpace=wrap;html=1;" vertex="1" parent="1">
          <mxGeometry x="105" y="420" width="160" height="100" as="geometry" />
        </mxCell>
        <mxCell id="JFB4fge5Wf1V-ydik8tn-41" value="+name: string&lt;div&gt;+year: int&lt;/div&gt;&lt;div&gt;+quantity: int&lt;/div&gt;" style="text;strokeColor=none;fillColor=none;align=left;verticalAlign=top;spacingLeft=4;spacingRight=4;overflow=hidden;rotatable=0;points=[[0,0.5],[1,0.5]];portConstraint=eastwest;whiteSpace=wrap;html=1;" vertex="1" parent="JFB4fge5Wf1V-ydik8tn-40">
          <mxGeometry y="26" width="160" height="54" as="geometry" />
        </mxCell>
        <mxCell id="JFB4fge5Wf1V-ydik8tn-42" value="" style="line;strokeWidth=1;fillColor=none;align=left;verticalAlign=middle;spacingTop=-1;spacingLeft=3;spacingRight=3;rotatable=0;labelPosition=right;points=[];portConstraint=eastwest;strokeColor=inherit;" vertex="1" parent="JFB4fge5Wf1V-ydik8tn-40">
          <mxGeometry y="80" width="160" height="8" as="geometry" />
        </mxCell>
        <mxCell id="JFB4fge5Wf1V-ydik8tn-43" value="&lt;div&gt;&amp;nbsp;&lt;/div&gt;" style="text;strokeColor=none;fillColor=none;align=left;verticalAlign=top;spacingLeft=4;spacingRight=4;overflow=hidden;rotatable=0;points=[[0,0.5],[1,0.5]];portConstraint=eastwest;whiteSpace=wrap;html=1;" vertex="1" parent="JFB4fge5Wf1V-ydik8tn-40">
          <mxGeometry y="88" width="160" height="12" as="geometry" />
        </mxCell>
        <mxCell id="JFB4fge5Wf1V-ydik8tn-44" value="Megazine" style="swimlane;fontStyle=1;align=center;verticalAlign=top;childLayout=stackLayout;horizontal=1;startSize=26;horizontalStack=0;resizeParent=1;resizeParentMax=0;resizeLast=0;collapsible=1;marginBottom=0;whiteSpace=wrap;html=1;" vertex="1" parent="1">
          <mxGeometry x="105" y="220" width="160" height="100" as="geometry" />
        </mxCell>
        <mxCell id="JFB4fge5Wf1V-ydik8tn-45" value="+name: string&lt;div&gt;+year: int&lt;/div&gt;&lt;div&gt;+quantity: int&lt;/div&gt;" style="text;strokeColor=none;fillColor=none;align=left;verticalAlign=top;spacingLeft=4;spacingRight=4;overflow=hidden;rotatable=0;points=[[0,0.5],[1,0.5]];portConstraint=eastwest;whiteSpace=wrap;html=1;" vertex="1" parent="JFB4fge5Wf1V-ydik8tn-44">
          <mxGeometry y="26" width="160" height="54" as="geometry" />
        </mxCell>
        <mxCell id="JFB4fge5Wf1V-ydik8tn-46" value="" style="line;strokeWidth=1;fillColor=none;align=left;verticalAlign=middle;spacingTop=-1;spacingLeft=3;spacingRight=3;rotatable=0;labelPosition=right;points=[];portConstraint=eastwest;strokeColor=inherit;" vertex="1" parent="JFB4fge5Wf1V-ydik8tn-44">
          <mxGeometry y="80" width="160" height="8" as="geometry" />
        </mxCell>
        <mxCell id="JFB4fge5Wf1V-ydik8tn-47" value="&lt;div&gt;&amp;nbsp;&lt;/div&gt;" style="text;strokeColor=none;fillColor=none;align=left;verticalAlign=top;spacingLeft=4;spacingRight=4;overflow=hidden;rotatable=0;points=[[0,0.5],[1,0.5]];portConstraint=eastwest;whiteSpace=wrap;html=1;" vertex="1" parent="JFB4fge5Wf1V-ydik8tn-44">
          <mxGeometry y="88" width="160" height="12" as="geometry" />
        </mxCell>
        <mxCell id="JFB4fge5Wf1V-ydik8tn-48" value="User" style="swimlane;fontStyle=1;align=center;verticalAlign=top;childLayout=stackLayout;horizontal=1;startSize=26;horizontalStack=0;resizeParent=1;resizeParentMax=0;resizeLast=0;collapsible=1;marginBottom=0;whiteSpace=wrap;html=1;" vertex="1" parent="1">
          <mxGeometry x="585" y="220" width="160" height="150" as="geometry" />
        </mxCell>
        <mxCell id="JFB4fge5Wf1V-ydik8tn-49" value="-UID: int&lt;div&gt;+name: string&lt;/div&gt;" style="text;strokeColor=none;fillColor=none;align=left;verticalAlign=top;spacingLeft=4;spacingRight=4;overflow=hidden;rotatable=0;points=[[0,0.5],[1,0.5]];portConstraint=eastwest;whiteSpace=wrap;html=1;" vertex="1" parent="JFB4fge5Wf1V-ydik8tn-48">
          <mxGeometry y="26" width="160" height="44" as="geometry" />
        </mxCell>
        <mxCell id="JFB4fge5Wf1V-ydik8tn-50" value="" style="line;strokeWidth=1;fillColor=none;align=left;verticalAlign=middle;spacingTop=-1;spacingLeft=3;spacingRight=3;rotatable=0;labelPosition=right;points=[];portConstraint=eastwest;strokeColor=inherit;" vertex="1" parent="JFB4fge5Wf1V-ydik8tn-48">
          <mxGeometry y="70" width="160" height="8" as="geometry" />
        </mxCell>
        <mxCell id="JFB4fge5Wf1V-ydik8tn-75" value="&lt;div&gt;&lt;span style=&quot;background-color: initial;&quot;&gt;+Reserve()&lt;/span&gt;&lt;br&gt;&lt;/div&gt;&lt;div&gt;&lt;span style=&quot;background-color: initial;&quot;&gt;+Rent()&lt;/span&gt;&lt;/div&gt;&lt;div&gt;+Return()&lt;/div&gt;&lt;div&gt;+Purchase()&lt;/div&gt;" style="text;strokeColor=none;fillColor=none;align=left;verticalAlign=top;spacingLeft=4;spacingRight=4;overflow=hidden;rotatable=0;points=[[0,0.5],[1,0.5]];portConstraint=eastwest;whiteSpace=wrap;html=1;" vertex="1" parent="JFB4fge5Wf1V-ydik8tn-48">
          <mxGeometry y="78" width="160" height="72" as="geometry" />
        </mxCell>
        <mxCell id="JFB4fge5Wf1V-ydik8tn-54" value="Librarian" style="swimlane;fontStyle=1;align=center;verticalAlign=top;childLayout=stackLayout;horizontal=1;startSize=26;horizontalStack=0;resizeParent=1;resizeParentMax=0;resizeLast=0;collapsible=1;marginBottom=0;whiteSpace=wrap;html=1;" vertex="1" parent="1">
          <mxGeometry x="345" y="220" width="160" height="170" as="geometry" />
        </mxCell>
        <mxCell id="JFB4fge5Wf1V-ydik8tn-55" value="-StaffID: int&lt;div&gt;-name: string&lt;/div&gt;" style="text;strokeColor=none;fillColor=none;align=left;verticalAlign=top;spacingLeft=4;spacingRight=4;overflow=hidden;rotatable=0;points=[[0,0.5],[1,0.5]];portConstraint=eastwest;whiteSpace=wrap;html=1;" vertex="1" parent="JFB4fge5Wf1V-ydik8tn-54">
          <mxGeometry y="26" width="160" height="44" as="geometry" />
        </mxCell>
        <mxCell id="JFB4fge5Wf1V-ydik8tn-56" value="" style="line;strokeWidth=1;fillColor=none;align=left;verticalAlign=middle;spacingTop=-1;spacingLeft=3;spacingRight=3;rotatable=0;labelPosition=right;points=[];portConstraint=eastwest;strokeColor=inherit;" vertex="1" parent="JFB4fge5Wf1V-ydik8tn-54">
          <mxGeometry y="70" width="160" height="8" as="geometry" />
        </mxCell>
        <mxCell id="JFB4fge5Wf1V-ydik8tn-72" value="&lt;div&gt;&lt;span style=&quot;background-color: initial;&quot;&gt;+Create()&lt;/span&gt;&lt;/div&gt;&lt;div&gt;&lt;span style=&quot;background-color: initial;&quot;&gt;+Update()&lt;/span&gt;&lt;/div&gt;&lt;div&gt;&lt;span style=&quot;background-color: initial;&quot;&gt;+Delete()&lt;/span&gt;&lt;/div&gt;&lt;div&gt;&lt;span style=&quot;background-color: initial;&quot;&gt;+CancelReservation()&lt;/span&gt;&lt;/div&gt;&lt;div&gt;&lt;span style=&quot;background-color: initial;&quot;&gt;+CompleteReservation()&lt;/span&gt;&lt;/div&gt;" style="text;strokeColor=none;fillColor=none;align=left;verticalAlign=top;spacingLeft=4;spacingRight=4;overflow=hidden;rotatable=0;points=[[0,0.5],[1,0.5]];portConstraint=eastwest;whiteSpace=wrap;html=1;" vertex="1" parent="JFB4fge5Wf1V-ydik8tn-54">
          <mxGeometry y="78" width="160" height="92" as="geometry" />
        </mxCell>
        <mxCell id="JFB4fge5Wf1V-ydik8tn-63" value="" style="endArrow=ERoneToMany;startArrow=ERone;html=1;rounded=0;entryX=0.5;entryY=0;entryDx=0;entryDy=0;startFill=0;endFill=0;exitX=0;exitY=0.5;exitDx=0;exitDy=0;edgeStyle=orthogonalEdgeStyle;" edge="1" parent="1" target="JFB4fge5Wf1V-ydik8tn-40">
          <mxGeometry width="50" height="50" relative="1" as="geometry">
            <mxPoint x="344.9999999999998" y="164.00000000000006" as="sourcePoint" />
            <mxPoint x="555" y="270" as="targetPoint" />
            <Array as="points">
              <mxPoint x="325" y="164" />
              <mxPoint x="325" y="380" />
              <mxPoint x="185" y="380" />
            </Array>
          </mxGeometry>
        </mxCell>
        <mxCell id="JFB4fge5Wf1V-ydik8tn-64" value="" style="endArrow=ERoneToMany;startArrow=ERone;html=1;rounded=0;entryX=0.5;entryY=0;entryDx=0;entryDy=0;startFill=0;endFill=0;edgeStyle=orthogonalEdgeStyle;" edge="1" parent="1" source="JFB4fge5Wf1V-ydik8tn-37" target="JFB4fge5Wf1V-ydik8tn-44">
          <mxGeometry width="50" height="50" relative="1" as="geometry">
            <mxPoint x="355" y="174" as="sourcePoint" />
            <mxPoint x="275" y="405" as="targetPoint" />
          </mxGeometry>
        </mxCell>
        <mxCell id="JFB4fge5Wf1V-ydik8tn-65" value="" style="endArrow=ERoneToMany;startArrow=ERone;html=1;rounded=0;startFill=0;endFill=0;exitX=0.5;exitY=1;exitDx=0;exitDy=0;entryX=0.5;entryY=0;entryDx=0;entryDy=0;edgeStyle=orthogonalEdgeStyle;" edge="1" parent="1" source="JFB4fge5Wf1V-ydik8tn-36" target="JFB4fge5Wf1V-ydik8tn-54">
          <mxGeometry width="50" height="50" relative="1" as="geometry">
            <mxPoint x="425.9599999999998" y="194.16000000000003" as="sourcePoint" />
            <mxPoint x="595" y="360" as="targetPoint" />
            <Array as="points">
              <mxPoint x="425" y="210" />
              <mxPoint x="425" y="210" />
            </Array>
          </mxGeometry>
        </mxCell>
        <mxCell id="JFB4fge5Wf1V-ydik8tn-66" value="" style="endArrow=ERoneToMany;startArrow=ERone;html=1;rounded=0;startFill=0;endFill=0;exitX=1;exitY=0.5;exitDx=0;exitDy=0;entryX=0.5;entryY=0;entryDx=0;entryDy=0;edgeStyle=orthogonalEdgeStyle;" edge="1" parent="1" source="JFB4fge5Wf1V-ydik8tn-37" target="JFB4fge5Wf1V-ydik8tn-48">
          <mxGeometry width="50" height="50" relative="1" as="geometry">
            <mxPoint x="515" y="174" as="sourcePoint" />
            <mxPoint x="545" y="220" as="targetPoint" />
          </mxGeometry>
        </mxCell>
        <mxCell id="JFB4fge5Wf1V-ydik8tn-68" value="" style="endArrow=ERoneToMany;startArrow=ERone;html=1;rounded=0;entryX=1;entryY=0.5;entryDx=0;entryDy=0;startFill=0;endFill=0;edgeStyle=orthogonalEdgeStyle;exitX=0.5;exitY=1;exitDx=0;exitDy=0;" edge="1" parent="1" source="JFB4fge5Wf1V-ydik8tn-54" target="JFB4fge5Wf1V-ydik8tn-41">
          <mxGeometry width="50" height="50" relative="1" as="geometry">
            <mxPoint x="424.52" y="360.18600000000004" as="sourcePoint" />
            <mxPoint x="355" y="595" as="targetPoint" />
          </mxGeometry>
        </mxCell>
        <mxCell id="JFB4fge5Wf1V-ydik8tn-74" value="" style="endArrow=ERoneToMany;startArrow=ERone;html=1;rounded=0;startFill=0;endFill=0;entryX=1;entryY=0.5;entryDx=0;entryDy=0;edgeStyle=orthogonalEdgeStyle;exitX=0.5;exitY=1;exitDx=0;exitDy=0;" edge="1" parent="1" source="JFB4fge5Wf1V-ydik8tn-48" target="JFB4fge5Wf1V-ydik8tn-43">
          <mxGeometry width="50" height="50" relative="1" as="geometry">
            <mxPoint x="675" y="390" as="sourcePoint" />
            <mxPoint x="675" y="230" as="targetPoint" />
          </mxGeometry>
        </mxCell>
      </root>
    </mxGraphModel>
  </diagram>
</mxfile>
